<?xml version="1.0" encoding="utf-8"?>
<!-- Generator: Adobe Illustrator 19.2.0, SVG Export Plug-In . SVG Version: 6.00 Build 0)  -->
<svg version="1.1" id="Lager_1" xmlns="http://www.w3.org/2000/svg" xmlns:xlink="http://www.w3.org/1999/xlink" x="0px" y="0px"
	 viewBox="0 0 612 110" style="enable-background:new 0 0 612 110;" xml:space="preserve">
<style type="text/css">
	.st0{fill:#659C35;}
	.st1{fill:#88C057;}
	.st2{fill:#E22F37;}
	.st3{fill:#994530;}
	.st4{fill:none;stroke:#1B1464;stroke-width:12;stroke-miterlimit:10;}
	.st5{fill:none;stroke:#1B1464;stroke-width:3.1484;stroke-miterlimit:10;}
	.st6{fill:none;}
	.st7{font-family:'MSReferenceSansSerif';}
	.st8{font-size:60px;}
</style>
<rect x="5.8" y="-464" class="st6" width="602.2" height="58"/>
<text transform="matrix(1 0 0 1 5.7666 -418.4001)" class="st2 st7 st8">Smultron</text>
<g>
	<path class="st0" d="M266.7-396.1l-2.8-0.9l1.8-8.7l5,1.2L266.7-396.1z M266.7-396.1"/>
	<path class="st1" d="M272.6-393.8c1.4-0.3,2.7-0.9,3.7-1.9c-3.7-4.4-6.4-3-6.4-3c0.5-1,0-1.7-0.8-2.3l-2.3,4.9l-2.8-0.9l1.1-5.3
		c-0.6,0-1,0-1.1,0.2c0,0-0.2-3.1-5.8-4c-0.3,1.4-0.2,2.9,0.3,4.3c-4.1-1.6-8.2-2.3-11.8-0.1c7.3,7.7,12.3,4.9,12.3,4.9
		c-2.8,6.1,0.7,10.3,1.2,11c0.8,0.2,6.2,1,10.1-4.4c0,0-1.5,4.8,8.8,7.2C278.9-387.7,276-391.1,272.6-393.8L272.6-393.8z
		 M272.6-393.8"/>
	<path class="st2" d="M277.3-383.8C277.2-383.8,277.2-383.8,277.3-383.8c-8.4-2.6-7.1-6.8-7.1-6.8c-3.8,5.5-9.3,4.6-10.1,4.4
		c-0.5-0.6-4-4.9-1.2-11c0,0-4.2,2.2-10.4-3.1c0,0,0,0-0.1,0c0,0,0,0,0.1,0c-3.3,0.9-6.2,3.5-9.1,8.4c-6.3,11-3.7,31.9,2.8,35.7
		c6.5,3.8,26-4.5,32.3-15.5c2.9-5,3.6-8.9,2.7-12.2C277.2-383.8,277.2-383.8,277.3-383.8L277.3-383.8z M277.3-383.8"/>
	<path class="st3" d="M250.5-392.7c0.1-0.4-0.4-0.7-0.7-0.4c0,0-3.9,3.8-4.2,4.2c-0.3,0.4-0.3,0.9-0.2,1.4s0.4,0.9,0.9,1.1
		c0.4,0.3,0.9,0.3,1.4,0.2c0.5-0.1,0.9-0.4,1.1-0.9C249.2-387.4,250.5-392.7,250.5-392.7L250.5-392.7z M250.5-392.7"/>
	<path class="st3" d="M258.6-383.4c0.1-0.4-0.4-0.7-0.7-0.4c0,0-3.9,3.8-4.2,4.2c-0.2,0.4-0.3,0.9-0.2,1.4c0.1,0.5,0.4,0.9,0.9,1.1
		c0.4,0.3,0.9,0.3,1.4,0.2c0.5-0.1,0.9-0.4,1.1-0.9C257.3-378.2,258.6-383.4,258.6-383.4L258.6-383.4z M258.6-383.4"/>
	<path class="st3" d="M270.1-381.4c0.1-0.4-0.4-0.7-0.7-0.4c0,0-3.9,3.8-4.1,4.2c-0.3,0.4-0.3,0.9-0.2,1.4c0.1,0.5,0.4,0.9,0.9,1.1
		c0.4,0.3,0.9,0.3,1.4,0.2c0.5-0.1,0.9-0.4,1.1-0.9C268.8-376.1,270.1-381.4,270.1-381.4L270.1-381.4z M270.1-381.4"/>
	<path class="st3" d="M248.2-379.2c0.1-0.4-0.4-0.7-0.7-0.4c0,0-3.9,3.8-4.1,4.2c-0.2,0.4-0.3,0.9-0.2,1.4c0.1,0.5,0.4,0.9,0.9,1.1
		c0.4,0.3,0.9,0.3,1.4,0.2c0.5-0.1,0.9-0.4,1.1-0.9c0.1-0.2,0.3-1,0.6-1.9C247.7-377.1,248.2-379.2,248.2-379.2L248.2-379.2z
		 M248.2-379.2"/>
	<path class="st3" d="M249.8-368c0.1-0.4-0.4-0.7-0.7-0.4c0,0-3.9,3.8-4.2,4.2c-0.3,0.4-0.3,0.9-0.2,1.4c0.1,0.5,0.4,0.9,0.9,1.1
		c0.4,0.3,0.9,0.3,1.4,0.2c0.5-0.1,0.9-0.4,1.1-0.9C248.5-362.8,249.8-368,249.8-368L249.8-368z M249.8-368"/>
	<path class="st3" d="M260.2-372.3c0.1-0.4-0.4-0.7-0.7-0.4c0,0-3.9,3.8-4.2,4.2c-0.3,0.4-0.3,0.9-0.2,1.4c0.1,0.5,0.4,0.9,0.9,1.1
		c0.4,0.3,0.9,0.3,1.4,0.2c0.5-0.1,0.9-0.4,1.1-0.9S260.2-372.3,260.2-372.3L260.2-372.3z M260.2-372.3"/>
</g>
<rect x="24.8" y="-573" class="st6" width="602.2" height="58"/>
<text transform="matrix(1 0 0 1 24.7666 -527.4001)"><tspan x="0" y="0" class="st2 st7 st8">Smultron</tspan><tspan x="277.4" y="0" class="st7 st8"> S    HLM</tspan></text>
<g>
	<polyline class="st4" points="406,-519 406,-565 430.9,-565 383,-565 	"/>
	<circle class="st5" cx="407.1" cy="-548.9" r="42.5"/>
</g>
<g>
	<path class="st0" d="M248.4-564.3l-2.6,0.5l-2.5-7.6l4.4-1.3L248.4-564.3z M248.4-564.3"/>
	<path class="st1" d="M254-565.1c1-0.9,1.7-1.9,2.1-3.2c-4.9-1.8-6.4,0.5-6.4,0.5c-0.1-1-0.8-1.4-1.7-1.4l0.4,4.9l-2.6,0.5l-1.6-4.7
		c-0.5,0.2-0.8,0.5-0.8,0.7c0,0-1.5-2.3-6.4-0.5c0.4,1.3,1.1,2.4,2.1,3.2c-3.9,0.6-7.5,1.9-9.3,5.2c9.1,2.7,11.9-1.7,11.9-1.7
		c0.6,6,5.2,7.8,5.9,8c0.7-0.2,5.3-2,5.9-8c0,0,1,4.4,10.1,1.7C261.7-563.2,257.9-564.6,254-565.1L254-565.1z M254-565.1"/>
	<path class="st2" d="M262.2-559.4C262.2-559.4,262.2-559.4,262.2-559.4c-7.7,1.7-8.6-2.1-8.6-2.1c-0.6,6-5.2,7.8-5.9,8
		c-0.7-0.2-5.3-2-5.9-8c0,0-2.3,3.6-9.5,2.2c0,0,0,0,0,0c0,0,0,0,0.1,0c-2.2,2.2-3.3,5.5-3.3,10.6c0,11.4,11.5,26.6,18.3,26.6
		c6.8,0,18.3-15.2,18.3-26.6c0-5.2-1.2-8.6-3.4-10.8C262.1-559.4,262.2-559.4,262.2-559.4L262.2-559.4z M262.2-559.4"/>
	<path class="st3" d="M237.3-554.3c-0.1-0.3-0.6-0.3-0.7,0c0,0-1.4,4.7-1.4,5.2c0,0.5,0.2,0.9,0.5,1.2c0.3,0.3,0.7,0.5,1.2,0.5
		c0.5,0,0.9-0.2,1.2-0.5c0.3-0.3,0.5-0.8,0.5-1.2C238.6-549.6,237.3-554.3,237.3-554.3L237.3-554.3z M237.3-554.3"/>
	<path class="st3" d="M247.8-550.7c-0.1-0.3-0.6-0.3-0.7,0c0,0-1.4,4.7-1.4,5.2c0,0.5,0.2,0.9,0.5,1.2c0.3,0.3,0.8,0.5,1.2,0.5
		c0.5,0,0.9-0.2,1.2-0.5c0.3-0.3,0.5-0.7,0.5-1.2S247.8-550.7,247.8-550.7L247.8-550.7z M247.8-550.7"/>
	<path class="st3" d="M257.7-554.3c-0.1-0.3-0.6-0.3-0.7,0c0,0-1.3,4.7-1.3,5.2c0,0.5,0.2,0.9,0.5,1.2c0.3,0.3,0.8,0.5,1.2,0.5
		c0.5,0,0.9-0.2,1.2-0.5c0.3-0.3,0.5-0.7,0.5-1.2C259.1-549.6,257.7-554.3,257.7-554.3L257.7-554.3z M257.7-554.3"/>
	<path class="st3" d="M241.6-542.7c-0.1-0.3-0.6-0.3-0.7,0c0,0-1.3,4.7-1.3,5.2c0,0.5,0.2,0.9,0.5,1.2c0.3,0.3,0.7,0.5,1.2,0.5
		s0.9-0.2,1.2-0.5c0.3-0.3,0.5-0.8,0.5-1.2C242.9-538,241.6-542.7,241.6-542.7L241.6-542.7z M241.6-542.7"/>
	<path class="st3" d="M247.8-534.7c-0.1-0.3-0.6-0.3-0.7,0c0,0-1.4,4.7-1.4,5.2c0,0.5,0.2,0.9,0.5,1.2c0.3,0.3,0.8,0.5,1.2,0.5
		c0.5,0,0.9-0.2,1.2-0.5c0.3-0.3,0.5-0.8,0.5-1.2C249.1-530,247.8-534.7,247.8-534.7L247.8-534.7z M247.8-534.7"/>
	<path class="st3" d="M254-542.7c-0.1-0.3-0.6-0.3-0.7,0c0,0-1.4,4.7-1.4,5.2c0,0.5,0.2,0.9,0.5,1.2c0.3,0.3,0.7,0.5,1.2,0.5
		c0.5,0,0.9-0.2,1.2-0.5c0.3-0.3,0.5-0.7,0.5-1.2C255.4-538,254-542.7,254-542.7L254-542.7z M254-542.7"/>
</g>
<text transform="matrix(1 0 0 1 7.7664 -364.0598)" class="st3" style="font-family:'Roboto-Regular'; font-size:48px;">S T H L M</text>
<rect x="426.8" y="-428" class="st6" width="602.2" height="58"/>
<text transform="matrix(1 0 0 1 426.7666 -384.6809)" class="st2 st8" style="font-family:'Neris-BoldItalic';">Smultron</text>
<g>
	<path class="st0" d="M678.7-362.1l-2.8-0.9l1.8-8.7l5,1.2L678.7-362.1z M678.7-362.1"/>
	<path class="st1" d="M684.6-359.8c1.4-0.3,2.7-0.9,3.7-1.9c-3.7-4.4-6.4-3-6.4-3c0.5-1,0-1.7-0.8-2.3l-2.3,4.9l-2.8-0.9l1.1-5.3
		c-0.6,0-1,0-1.1,0.2c0,0-0.2-3.1-5.8-4c-0.3,1.4-0.2,2.9,0.3,4.3c-4.1-1.6-8.2-2.3-11.8-0.1c7.3,7.7,12.3,4.9,12.3,4.9
		c-2.8,6.1,0.7,10.3,1.2,11c0.8,0.2,6.2,1,10.1-4.4c0,0-1.5,4.8,8.8,7.2C690.9-353.7,688-357.1,684.6-359.8L684.6-359.8z
		 M684.6-359.8"/>
	<path class="st2" d="M689.3-349.8C689.2-349.8,689.2-349.8,689.3-349.8c-8.4-2.6-7.1-6.8-7.1-6.8c-3.8,5.5-9.3,4.6-10.1,4.4
		c-0.5-0.6-4-4.9-1.2-11c0,0-4.2,2.2-10.4-3.1c0,0,0,0-0.1,0c0,0,0,0,0.1,0c-3.3,0.9-6.2,3.5-9.1,8.4c-6.3,11-3.7,31.9,2.8,35.7
		c6.5,3.8,26-4.5,32.3-15.5c2.9-5,3.6-8.9,2.7-12.2C689.2-349.8,689.2-349.8,689.3-349.8L689.3-349.8z M689.3-349.8"/>
	<path class="st3" d="M662.5-358.7c0.1-0.4-0.4-0.7-0.7-0.4c0,0-3.9,3.8-4.2,4.2c-0.3,0.4-0.3,0.9-0.2,1.4c0.1,0.5,0.4,0.9,0.9,1.1
		c0.4,0.3,0.9,0.3,1.4,0.2c0.5-0.1,0.9-0.4,1.1-0.9C661.2-353.4,662.5-358.7,662.5-358.7L662.5-358.7z M662.5-358.7"/>
	<path class="st3" d="M670.6-349.4c0.1-0.4-0.4-0.7-0.7-0.4c0,0-3.9,3.8-4.2,4.2c-0.2,0.4-0.3,0.9-0.2,1.4c0.1,0.5,0.4,0.9,0.9,1.1
		c0.4,0.3,0.9,0.3,1.4,0.2c0.5-0.1,0.9-0.4,1.1-0.9C669.3-344.2,670.6-349.4,670.6-349.4L670.6-349.4z M670.6-349.4"/>
	<path class="st3" d="M682.1-347.4c0.1-0.4-0.4-0.7-0.7-0.4c0,0-3.9,3.8-4.1,4.2c-0.3,0.4-0.3,0.9-0.2,1.4c0.1,0.5,0.4,0.9,0.9,1.1
		c0.4,0.3,0.9,0.3,1.4,0.2c0.5-0.1,0.9-0.4,1.1-0.9C680.8-342.1,682.1-347.4,682.1-347.4L682.1-347.4z M682.1-347.4"/>
	<path class="st3" d="M660.2-345.2c0.1-0.4-0.4-0.7-0.7-0.4c0,0-3.9,3.8-4.1,4.2c-0.2,0.4-0.3,0.9-0.2,1.4c0.1,0.5,0.4,0.9,0.9,1.1
		c0.4,0.3,0.9,0.3,1.4,0.2c0.5-0.1,0.9-0.4,1.1-0.9c0.1-0.2,0.3-1,0.6-1.9C659.7-343.1,660.2-345.2,660.2-345.2L660.2-345.2z
		 M660.2-345.2"/>
	<path class="st3" d="M661.8-334c0.1-0.4-0.4-0.7-0.7-0.4c0,0-3.9,3.8-4.2,4.2c-0.3,0.4-0.3,0.9-0.2,1.4c0.1,0.5,0.4,0.9,0.9,1.1
		c0.4,0.3,0.9,0.3,1.4,0.2c0.5-0.1,0.9-0.4,1.1-0.9C660.5-328.8,661.8-334,661.8-334L661.8-334z M661.8-334"/>
	<path class="st3" d="M672.2-338.3c0.1-0.4-0.4-0.7-0.7-0.4c0,0-3.9,3.8-4.2,4.2c-0.3,0.4-0.3,0.9-0.2,1.4c0.1,0.5,0.4,0.9,0.9,1.1
		c0.4,0.3,0.9,0.3,1.4,0.2c0.5-0.1,0.9-0.4,1.1-0.9S672.2-338.3,672.2-338.3L672.2-338.3z M672.2-338.3"/>
</g>
<text transform="matrix(1 0 0 1 424.7664 -328.0598)" class="st3" style="font-family:'Roboto-Regular'; font-size:48px;">S T H L M</text>
<rect x="24.8" y="31" class="st6" width="602.2" height="58"/>
<text transform="matrix(1 0 0 1 24.7666 76.5994)"><tspan x="0" y="0" class="st2 st7 st8">Smultron</tspan><tspan x="277.4" y="0" class="st7 st8"> S    HLM</tspan></text>
<g>
	<polyline class="st4" points="406,85 406,39 430.9,39 383,39 	"/>
	<circle class="st5" cx="407.1" cy="55.1" r="42.5"/>
</g>
<g>
	<path class="st0" d="M248.4,39.7l-2.6,0.5l-2.5-7.6l4.4-1.3L248.4,39.7z M248.4,39.7"/>
	<path class="st1" d="M254,38.9c1-0.9,1.7-1.9,2.1-3.2c-4.9-1.8-6.4,0.5-6.4,0.5c-0.1-1-0.8-1.4-1.7-1.4l0.4,4.9l-2.6,0.5l-1.6-4.7
		c-0.5,0.2-0.8,0.5-0.8,0.7c0,0-1.5-2.3-6.4-0.5c0.4,1.3,1.1,2.4,2.1,3.2c-3.9,0.6-7.5,1.9-9.3,5.2c9.1,2.7,11.9-1.7,11.9-1.7
		c0.6,6,5.2,7.8,5.9,8c0.7-0.2,5.3-2,5.9-8c0,0,1,4.4,10.1,1.7C261.7,40.8,257.9,39.4,254,38.9L254,38.9z M254,38.9"/>
	<path class="st2" d="M262.2,44.6C262.2,44.6,262.2,44.6,262.2,44.6c-7.7,1.7-8.6-2.1-8.6-2.1c-0.6,6-5.2,7.8-5.9,8
		c-0.7-0.2-5.3-2-5.9-8c0,0-2.3,3.6-9.5,2.2c0,0,0,0,0,0c0,0,0,0,0.1,0c-2.2,2.2-3.3,5.5-3.3,10.6c0,11.4,11.5,26.6,18.3,26.6
		c6.8,0,18.3-15.2,18.3-26.6c0-5.2-1.2-8.6-3.4-10.8C262.1,44.6,262.2,44.6,262.2,44.6L262.2,44.6z M262.2,44.6"/>
	<path class="st3" d="M237.3,49.7c-0.1-0.3-0.6-0.3-0.7,0c0,0-1.4,4.7-1.4,5.2c0,0.5,0.2,0.9,0.5,1.2c0.3,0.3,0.7,0.5,1.2,0.5
		c0.5,0,0.9-0.2,1.2-0.5c0.3-0.3,0.5-0.8,0.5-1.2C238.6,54.4,237.3,49.7,237.3,49.7L237.3,49.7z M237.3,49.7"/>
	<path class="st3" d="M247.8,53.3c-0.1-0.3-0.6-0.3-0.7,0c0,0-1.4,4.7-1.4,5.2c0,0.5,0.2,0.9,0.5,1.2c0.3,0.3,0.8,0.5,1.2,0.5
		c0.5,0,0.9-0.2,1.2-0.5c0.3-0.3,0.5-0.7,0.5-1.2C249.1,58,247.8,53.3,247.8,53.3L247.8,53.3z M247.8,53.3"/>
	<path class="st3" d="M257.7,49.7c-0.1-0.3-0.6-0.3-0.7,0c0,0-1.3,4.7-1.3,5.2c0,0.5,0.2,0.9,0.5,1.2c0.3,0.3,0.8,0.5,1.2,0.5
		c0.5,0,0.9-0.2,1.2-0.5c0.3-0.3,0.5-0.7,0.5-1.2C259.1,54.4,257.7,49.7,257.7,49.7L257.7,49.7z M257.7,49.7"/>
	<path class="st3" d="M241.6,61.3c-0.1-0.3-0.6-0.3-0.7,0c0,0-1.3,4.7-1.3,5.2c0,0.5,0.2,0.9,0.5,1.2c0.3,0.3,0.7,0.5,1.2,0.5
		s0.9-0.2,1.2-0.5c0.3-0.3,0.5-0.8,0.5-1.2C242.9,66,241.6,61.3,241.6,61.3L241.6,61.3z M241.6,61.3"/>
	<path class="st3" d="M247.8,69.3c-0.1-0.3-0.6-0.3-0.7,0c0,0-1.4,4.7-1.4,5.2c0,0.5,0.2,0.9,0.5,1.2c0.3,0.3,0.8,0.5,1.2,0.5
		c0.5,0,0.9-0.2,1.2-0.5c0.3-0.3,0.5-0.8,0.5-1.2C249.1,74,247.8,69.3,247.8,69.3L247.8,69.3z M247.8,69.3"/>
	<path class="st3" d="M254,61.3c-0.1-0.3-0.6-0.3-0.7,0c0,0-1.4,4.7-1.4,5.2c0,0.5,0.2,0.9,0.5,1.2c0.3,0.3,0.7,0.5,1.2,0.5
		c0.5,0,0.9-0.2,1.2-0.5c0.3-0.3,0.5-0.7,0.5-1.2C255.4,66,254,61.3,254,61.3L254,61.3z M254,61.3"/>
</g>
</svg>
