<?xml version="1.0" encoding="utf-8"?>
<!-- Generator: Adobe Illustrator 19.2.0, SVG Export Plug-In . SVG Version: 6.00 Build 0)  -->
<svg version="1.1" id="Lager_1" xmlns="http://www.w3.org/2000/svg" xmlns:xlink="http://www.w3.org/1999/xlink" x="0px" y="0px"
	 viewBox="0 0 165 222" style="enable-background:new 0 0 165 222;" xml:space="preserve">
<style type="text/css">
	.st0{fill:#FFFFFF;stroke:#FFFFFF;stroke-miterlimit:10;}
</style>
<path class="st0" d="M88.3,38.7L77.1,41L66.2,8.5l19-5.5L88.3,38.7z"/>
<path class="st0" d="M112.3,35.2c4.1-3.7,7.2-8.2,8.8-13.5C100.3,14,93.8,24,93.8,24c-0.3-4.1-3.4-5.8-7.3-6.2l1.8,20.9L77.1,41
	l-6.7-19.9c-2,1-3.3,2-3.4,2.8c0,0-6.5-10-27.2-2.3c1.6,5.4,4.8,10.1,9.1,13.9c-16.7,2.4-32,8.1-39.8,22.2
	c39.1,11.7,50.8-7.2,50.8-7.2c2.4,25.6,22.2,33.2,25.2,34.3c3-1,22.9-8.6,25.2-34.3c0,0,4.3,18.9,43.4,7.2
	C145.2,43.6,129,37.6,112.3,35.2L112.3,35.2z"/>
<path class="st0" d="M147.2,59.8c-0.1-0.1-0.1-0.2-0.2-0.2c-32.9,7.7-36.7-8.9-36.7-8.9C108,76.3,88.1,83.9,85.1,84.9
	c-3-1-22.9-8.6-25.2-34.3c0,0-9.7,15.5-40.8,9.5c-0.1,0.1-0.1,0.1-0.2,0.2c0.1,0,0.2,0,0.3,0.1C9.9,69.7,5,84.2,5,106
	c0,48.8,49.1,114,78.2,114s78.2-65.2,78.2-114c0-22.3-5.1-36.8-14.6-46.1C146.9,59.9,147.1,59.8,147.2,59.8L147.2,59.8z"/>
<path class="st0" d="M40.5,81.7c-0.5-1.5-2.6-1.5-3,0c0,0-5.8,20.1-5.8,22.1s0.8,3.8,2.1,5.2c1.4,1.4,3.2,2.1,5.1,2.1
	c2,0,3.8-0.8,5.1-2.1c1.4-1.4,2.1-3.2,2.1-5.2C46.3,101.8,40.5,81.7,40.5,81.7L40.5,81.7z"/>
<path class="st0" d="M85.6,96.9c-0.5-1.5-2.6-1.5-3,0c0,0-5.8,20.2-5.8,22.1c0,1.9,0.8,3.8,2.1,5.1c1.4,1.4,3.2,2.1,5.1,2.1
	c2,0,3.8-0.8,5.2-2.1c1.4-1.4,2.1-3.2,2.1-5.1S85.6,96.9,85.6,96.9L85.6,96.9z"/>
<path class="st0" d="M128.1,81.6c-0.5-1.5-2.6-1.5-3,0c0,0-5.8,20.2-5.8,22.1c0,2,0.7,3.8,2.1,5.1c1.4,1.4,3.2,2.1,5.1,2.1
	c2,0,3.8-0.8,5.2-2.1c1.4-1.4,2.1-3.2,2.1-5.1C133.9,101.8,128.1,81.6,128.1,81.6L128.1,81.6z"/>
<path class="st0" d="M58.9,131.2c-0.5-1.5-2.6-1.5-3,0c0,0-5.8,20.2-5.8,22.1c0,1.9,0.8,3.8,2.1,5.1c1.4,1.4,3.2,2.1,5.1,2.1
	c2,0,3.8-0.8,5.1-2.1c1.4-1.4,2.1-3.2,2.1-5.1C64.7,151.4,58.9,131.2,58.9,131.2L58.9,131.2z"/>
<path class="st0" d="M85.6,165.4c-0.5-1.5-2.6-1.5-3,0c0,0-5.8,20.1-5.8,22.1c0,1.9,0.8,3.8,2.1,5.1c1.4,1.4,3.2,2.1,5.1,2.1
	c2,0,3.8-0.8,5.2-2.1c1.4-1.4,2.1-3.2,2.1-5.1C91.3,185.6,85.6,165.4,85.6,165.4L85.6,165.4z"/>
<path class="st0" d="M112.2,131.2c-0.5-1.5-2.6-1.5-3,0c0,0-5.8,20.1-5.8,22.1s0.8,3.8,2.1,5.1c1.4,1.4,3.2,2.1,5.1,2.1
	c2,0,3.8-0.8,5.1-2.1c1.4-1.4,2.1-3.2,2.1-5.1C118,151.3,112.2,131.2,112.2,131.2L112.2,131.2z"/>
</svg>
