<?xml version="1.0" encoding="utf-8"?>
<!-- Generator: Adobe Illustrator 19.2.0, SVG Export Plug-In . SVG Version: 6.00 Build 0)  -->
<svg version="1.1" id="Lager_1" xmlns="http://www.w3.org/2000/svg" xmlns:xlink="http://www.w3.org/1999/xlink" x="0px" y="0px"
	 viewBox="0 0 489 473" style="enable-background:new 0 0 489 473;" xml:space="preserve">
<g>
	<path d="M144.8,464c-13.8,0-25.1-11.3-25.1-25.1c0-11.5,7.8-21.2,18.3-24.2V255.2c-4.5-1.3-8.5-3.8-11.6-7.1l-68,38.1
		c0.2,1.3,0.3,2.7,0.3,4c0,13.8-11.3,25.1-25.1,25.1c-13.8,0-25.1-11.2-25.1-25.1c0-13.8,11.2-25.1,25.1-25.1c7.6,0,14.4,3.4,19,8.8
		l67.5-37.8c-0.3-1.6-0.5-3.3-0.5-5.1c0-11.5,7.8-21.2,18.3-24.2v-92.2c-8.4-2.4-15-9-17.4-17.4H57.9c-3,10.6-12.7,18.3-24.2,18.3
		c-13.8,0-25.1-11.3-25.1-25.1c0-13.8,11.2-25.1,25.1-25.1c11.5,0,21.2,7.8,24.2,18.3h62.8c3-10.6,12.7-18.3,24.2-18.3
		c11.5,0,21.2,7.8,24.2,18.3h59.9c3-10.6,12.7-18.3,24.2-18.3c13.8,0,25.1,11.3,25.1,25.1c0,11.5-7.8,21.2-18.3,24.2v109.6h90.5
		c2.4-8.4,9-15,17.4-17.4V59.2c-10.6-3-18.3-12.7-18.3-24.2c0-13.8,11.2-25.1,25.1-25.1c13.8,0,25.1,11.3,25.1,25.1
		c0,11.5-7.8,21.2-18.3,24.2v147.6c10.6,3,18.3,12.7,18.3,24.2c0,5.5-1.8,10.6-4.8,14.7l45.5,45.5c4.1-3,9.2-4.8,14.7-4.8
		c13.8,0,25.1,11.2,25.1,25.1c0,11.5-7.8,21.2-18.3,24.2v47.1c10.6,3,18.3,12.7,18.3,24.2c0,13.8-11.3,25.1-25.1,25.1
		c-13.8,0-25.1-11.3-25.1-25.1c0-11.5,7.8-21.2,18.3-24.2v-47.1c-10.6-3-18.3-12.7-18.3-24.2c0-3.4,0.7-6.7,1.9-9.6l-47.8-47.8
		c-3,1.2-6.2,1.9-9.6,1.9c-11.5,0-21.2-7.8-24.1-18.3h-90.5v93.1c10.6,3,18.3,12.7,18.3,24.2c0,13.8-11.2,25.1-25.1,25.1
		c-13.8,0-25.1-11.3-25.1-25.1c0-11.5,7.8-21.2,18.3-24.2v-93.1h-77.3c-2.4,8.4-9,15-17.4,17.4v159.6c10.6,3,18.3,12.7,18.3,24.2
		C169.9,452.7,158.6,464,144.8,464L144.8,464z M144.8,427.4c-6.4,0-11.6,5.2-11.6,11.6c0,6.4,5.2,11.6,11.6,11.6
		c6.4,0,11.6-5.2,11.6-11.6C156.3,432.5,151.2,427.4,144.8,427.4L144.8,427.4z M455,395.4c-6.4,0-11.6,5.2-11.6,11.6
		s5.2,11.6,11.6,11.6c6.4,0,11.6-5.2,11.6-11.6S461.4,395.4,455,395.4L455,395.4z M253.1,343.5c-6.4,0-11.6,5.2-11.6,11.6
		c0,6.4,5.2,11.6,11.6,11.6c6.4,0,11.6-5.2,11.6-11.6C264.6,348.7,259.4,343.5,253.1,343.5L253.1,343.5z M455,300
		c-6.4,0-11.6,5.2-11.6,11.6c0,6.4,5.2,11.6,11.6,11.6c6.4,0,11.6-5.2,11.6-11.6C466.6,305.2,461.4,300,455,300L455,300z
		 M33.7,278.7c-6.4,0-11.6,5.2-11.6,11.6c0,6.4,5.2,11.6,11.6,11.6c6.4,0,11.6-5.2,11.6-11.6c0-1.6-0.3-3-0.9-4.4
		c-0.1-0.1-0.1-0.3-0.2-0.4C42.4,281.4,38.4,278.7,33.7,278.7L33.7,278.7z M374.4,219.5c-6.4,0-11.6,5.2-11.6,11.6
		s5.2,11.6,11.6,11.6c2.4,0,4.7-0.7,6.5-2c0.2-0.1,0.4-0.3,0.6-0.4c2.7-2.1,4.4-5.4,4.4-9.1C386,224.7,380.8,219.5,374.4,219.5
		L374.4,219.5z M134.6,236.5c2,3.6,5.8,6.1,10.2,6.1c6.4,0,11.6-5.2,11.6-11.6s-5.2-11.6-11.6-11.6c-6.4,0-11.6,5.2-11.6,11.6
		c0,1.7,0.4,3.4,1.1,4.9c0,0,0,0,0,0C134.4,236.1,134.5,236.3,134.6,236.5L134.6,236.5z M168.9,224.3h77.3V114.7
		c-8.4-2.4-15-9-17.4-17.4h-59.9c-2.4,8.4-9,15-17.4,17.4v92.2C160,209.2,166.6,215.9,168.9,224.3L168.9,224.3z M253.1,79
		c-6.4,0-11.6,5.2-11.6,11.6c0,6.4,5.2,11.6,11.6,11.6c6.4,0,11.6-5.2,11.6-11.6C264.6,84.1,259.4,79,253.1,79L253.1,79z M144.8,79
		c-6.4,0-11.6,5.2-11.6,11.6c0,6.4,5.2,11.6,11.6,11.6c6.4,0,11.6-5.2,11.6-11.6C156.3,84.1,151.2,79,144.8,79L144.8,79z M33.7,79
		c-6.4,0-11.6,5.2-11.6,11.6c0,6.4,5.2,11.6,11.6,11.6c6.4,0,11.6-5.2,11.6-11.6C45.3,84.1,40.1,79,33.7,79L33.7,79z M374.4,23.5
		c-6.4,0-11.6,5.2-11.6,11.6c0,6.4,5.2,11.6,11.6,11.6c6.4,0,11.6-5.2,11.6-11.6C386,28.7,380.8,23.5,374.4,23.5L374.4,23.5z
		 M374.4,23.5"/>
</g>
</svg>
