<?xml version="1.0" encoding="utf-8"?>
<!-- Generator: Adobe Illustrator 19.2.0, SVG Export Plug-In . SVG Version: 6.00 Build 0)  -->
<svg version="1.1" id="Lager_1" xmlns="http://www.w3.org/2000/svg" xmlns:xlink="http://www.w3.org/1999/xlink" x="0px" y="0px"
	 viewBox="0 0 660.1 447.5" style="enable-background:new 0 0 660.1 447.5;" xml:space="preserve">
<style type="text/css">
	.st0{fill:none;stroke:#2E3192;stroke-width:10;stroke-miterlimit:10;}
	.st1{fill:none;stroke:#39B54A;stroke-width:10;stroke-miterlimit:10;}
	.st2{fill:none;stroke:#ED1C24;stroke-width:10;stroke-miterlimit:10;}
	.st3{fill:none;stroke:#2E3192;stroke-width:11;stroke-miterlimit:10;}
	.st4{fill:#FFFFFF;stroke:#000000;stroke-width:3.3075;stroke-miterlimit:10;}
</style>
<g>
	<path class="st0" d="M119.7,108.7l127.7-45.4c5.2-1.8,12,0.3,15.2,4.8l22.3,31.5c3.2,4.5,10.2,7.2,15.5,5.9l41-9.4"/>
</g>
<g>
	<path class="st1" d="M651.8,432.6v-105c0-5.5-3.2-13.2-7.1-17.1l-66.6-66.8c-3.9-3.9-11.6-7.1-17.1-7.1H351.8
		c-5.5,0-13.9,2.2-18.7,4.9l-102.8,57.3"/>
</g>
<g>
	<path class="st2" d="M264.3,386.7L367,329.4c4.8-2.7,13.2-4.9,18.7-4.9H595c5.5,0,5.5,0,0,0H493.8c-5.5,0-11.7-4.2-13.7-9.3
		l-30.9-76.9c-2.1-5.1,0.6-10.3,6-11.6l155.5-37.1"/>
</g>
<g>
	<line class="st3" x1="341.3" y1="3.6" x2="341.3" y2="444.6"/>
</g>
<g>
	<path class="st2" d="M9.2,241.5l174.6-114.9c4.6-3,10.8-1.7,13.8,2.9l139.6,212.3"/>
</g>
<circle class="st4" cx="341.8" cy="237" r="8.4"/>
<circle class="st4" cx="449.8" cy="236.6" r="8.4"/>
<circle class="st4" cx="340.8" cy="96.6" r="8.4"/>
<circle class="st4" cx="341.8" cy="344.9" r="8.4"/>
<circle class="st4" cx="287.1" cy="266.8" r="8.4"/>
</svg>
